PathFileType  4	(X/Y/Z) C:\Users\antoi\Documents\MyRepositories\mobilecap\ResultsAnalysis
DataRate	CameraRate	NumFrames	NumMarkers	Units	OrigDataRate	OrigDataStartFrame	OrigNumFrames
100.0	100.0	4	51	mm	100.0	31	242
Frame#	Time	r_knee			r_shank_antsup			r_ankle			r_calc			r_5meta			r_toe			L_knee			L_shank_antsup			L_ankle			L_calc			L_5meta			L_toe			r_sh2			r_sh3			r_sh4			L_sh2			L_sh3			r_thigh1			r_thigh2			r_thigh3			r_thigh4			r_thigh5			L_thigh1			L_thigh2			L_thigh3			L_thigh4			r.ASIS			r.PSIS			L.ASIS			L.PSIS			C7			R_Shoulder			L_Shoulder			R_Sternum			L_Sternum			R_humerus			R_elbow_med			R_elbow_lat			R_forearm			R_wrist_radius			R_wrist_ulna			L_humerus			L_elbow_med			L_elbow_lat			L_forearm			L_wrist_radius			L_wrist_ulna			R_HJC			L_HJC			R_HJC_reg			L_HJC_reg			
		X1	Y1	Z1	X2	Y2	Z2	X3	Y3	Z3	X4	Y4	Z4	X5	Y5	Z5	X6	Y6	Z6	X7	Y7	Z7	X8	Y8	Z8	X9	Y9	Z9	X10	Y10	Z10	X11	Y11	Z11	X12	Y12	Z12	X13	Y13	Z13	X14	Y14	Z14	X15	Y15	Z15	X16	Y16	Z16	X17	Y17	Z17	X18	Y18	Z18	X19	Y19	Z19	X20	Y20	Z20	X21	Y21	Z21	X22	Y22	Z22	X23	Y23	Z23	X24	Y24	Z24	X25	Y25	Z25	X26	Y26	Z26	X27	Y27	Z27	X28	Y28	Z28	X29	Y29	Z29	X30	Y30	Z30	X31	Y31	Z31	X32	Y32	Z32	X33	Y33	Z33	X34	Y34	Z34	X35	Y35	Z35	X36	Y36	Z36	X37	Y37	Z37	X38	Y38	Z38	X39	Y39	Z39	X40	Y40	Z40	X41	Y41	Z41	X42	Y42	Z42	X43	Y43	Z43	X44	Y44	Z44	X45	Y45	Z45	X46	Y46	Z46	X47	Y47	Z47	X48	Y48	Z48	X49	Y49	Z49	X50	Y50	Z50	X51	Y51	Z51	

31	0.30000000	-1176.76177	798.45854	-440.53879	-1154.84746	696.91016	-448.97317	-1290.82214	401.77904	-459.33155	-1353.97189	365.69632	-506.51947	-1171.85435	351.31850	-419.91498	-1139.66914	379.24505	-474.84541	-1183.44530	807.12820	-722.61917	-1153.54275	717.09505	-707.73654	-1275.82910	404.52758	-709.17789	-1349.57017	361.45275	-667.41901	-1169.61594	351.11228	-745.37391	-1125.42183	374.70807	-686.98753	-1185.25967	587.83893	-451.92725	-1216.45687	712.72195	-407.40737	-1253.22512	602.59476	-406.28784	-1228.89907	746.29980	-749.24663	-1257.64865	627.72023	-756.03478	-1129.08474	1077.40189	-409.97984	-1120.77006	967.76448	-428.97422	-1170.20220	934.42813	-397.69910	-1240.74951	1062.56139	-394.61802	-1223.71590	948.46225	-412.58438	-1115.47188	1053.58549	-739.17897	-1103.82003	915.53580	-715.90842	-1219.97111	1040.78770	-771.77530	-1209.10503	910.73124	-743.00043	-1095.56588	1257.19359	-452.89592	-1295.89132	1326.43658	-528.72711	-1100.80808	1267.40975	-706.40826	-1294.82531	1328.46640	-624.12586	-1168.77028	1775.26599	-565.51689	-1100.16181	1732.13992	-399.53981	-1091.97983	1732.13328	-719.11637	-1058.57033	1677.26881	-539.46060	-1060.51204	1680.16057	-586.72072	-1102.49164	1595.58275	-345.11742	-1254.29280	1439.52159	-377.93595	-1234.44358	1446.94092	-316.43435	-1210.74104	1366.62693	-289.62946	-1223.41012	1194.52569	-305.59824	-1256.55200	1210.05645	-271.11239	-1104.12510	1591.66683	-786.27972	-1251.94925	1438.37158	-751.20879	-1226.61844	1445.84564	-830.14132	-1207.83014	1373.97264	-851.06988	-1247.46200	1197.39978	-856.50339	-1277.15759	1222.47340	-893.02064	-1192.89508	1185.90269	-480.15016	-1193.96799	1193.55646	-669.55504	-1183.55598	1196.93576	-490.92584	-1181.68496	1200.49853	-658.36716	
32	0.31000000	-1174.97885	797.75902	-440.31518	-1153.36082	696.30956	-448.97963	-1290.82035	401.78097	-459.32235	-1353.98590	365.70055	-506.48926	-1171.86159	351.29220	-419.91539	-1139.69688	379.23455	-474.80869	-1180.36441	806.20252	-722.11000	-1150.50276	715.96038	-707.36001	-1275.75697	404.54294	-709.18495	-1349.56652	361.48790	-667.43860	-1169.60878	351.13319	-745.36229	-1125.42404	374.73257	-686.97190	-1184.25785	587.31842	-452.03743	-1214.97010	712.50752	-407.39329	-1252.39344	602.73655	-406.02164	-1225.45372	745.86339	-749.00527	-1255.24156	627.53445	-755.86062	-1128.53211	1076.91535	-409.53568	-1119.91376	967.48891	-428.67939	-1169.29292	933.83154	-397.67451	-1240.47812	1061.60996	-394.40400	-1222.82919	947.69110	-412.52576	-1114.42254	1053.10047	-739.02069	-1101.82244	915.28696	-715.61182	-1218.70924	1039.50405	-771.84639	-1206.88029	909.59727	-742.91985	-1095.55370	1256.27784	-452.54073	-1295.67655	1326.42789	-528.62102	-1101.06563	1266.47130	-706.00451	-1294.50449	1328.35836	-623.97404	-1163.43079	1774.44427	-564.68750	-1095.25515	1730.13099	-398.85606	-1087.33334	1730.48220	-718.68913	-1054.54046	1675.27155	-538.93300	-1056.65532	1677.93515	-585.49642	-1099.84132	1593.76958	-344.29910	-1253.90887	1440.16249	-377.51214	-1234.56842	1447.48049	-315.75540	-1212.38327	1367.01454	-288.37269	-1227.61904	1195.00862	-304.35903	-1260.94771	1211.09335	-270.26401	-1101.82829	1590.44579	-785.79608	-1252.36815	1440.04367	-750.52913	-1227.49204	1447.13266	-829.68590	-1210.23059	1375.08659	-851.20681	-1253.06583	1199.25674	-856.92593	-1282.55916	1224.96235	-893.11790	-1193.32279	1185.45427	-479.82786	-1194.34842	1192.99500	-669.23753	-1184.04045	1196.49163	-490.58397	-1181.98277	1199.88110	-657.99792	
33	0.32000000	-1173.12376	797.29495	-440.01595	-1151.72308	695.63000	-448.98904	-1290.82915	401.77849	-459.31928	-1353.95776	365.70512	-506.50235	-1171.89685	351.20669	-419.94000	-1139.71574	379.23899	-474.78239	-1177.10511	805.20813	-721.59553	-1147.26793	714.72625	-707.05598	-1275.68098	404.55650	-709.19338	-1349.57558	361.51674	-667.41316	-1169.60650	351.16203	-745.34518	-1125.46966	374.75781	-686.92308	-1183.14974	586.67630	-452.14660	-1213.20506	712.15146	-407.34219	-1251.12587	602.49364	-405.76657	-1221.87094	745.29498	-748.59811	-1252.67567	627.38489	-755.86329	-1128.47046	1076.46916	-409.29966	-1118.96973	967.06629	-428.66126	-1168.36642	933.00576	-397.69508	-1240.31421	1060.37464	-394.05551	-1221.89055	946.78249	-412.40703	-1113.30112	1052.56969	-738.91673	-1099.59597	914.86337	-715.19645	-1217.30727	1038.12651	-772.09054	-1204.53201	908.27619	-742.65207	-1095.64991	1255.29059	-452.23798	-1295.45804	1326.36218	-528.35797	-1101.46915	1265.36987	-705.70181	-1294.22079	1328.17764	-623.68381	-1158.00471	1773.42709	-564.01413	-1090.26399	1727.86756	-398.37145	-1082.09901	1728.76978	-718.07880	-1050.38701	1673.06743	-538.43678	-1052.85801	1675.45963	-584.00016	-1097.07125	1591.78502	-343.62561	-1253.40412	1440.65222	-377.36134	-1234.50683	1447.85095	-315.20790	-1213.92393	1367.30913	-287.15670	-1231.51451	1195.45738	-303.20291	-1264.84551	1212.32285	-269.08979	-1099.37136	1589.16205	-785.51749	-1251.33528	1440.54906	-750.13237	-1228.24314	1448.26129	-829.00547	-1212.48110	1376.17925	-851.05385	-1258.16773	1200.97278	-857.39637	-1287.57422	1227.40275	-892.88266	-1193.79814	1184.93360	-479.45259	-1194.90932	1192.32756	-668.86756	-1184.62066	1195.95701	-490.25742	-1182.44774	1199.14532	-657.67537	
34	0.33000000	-1171.13352	796.70263	-439.99934	-1149.90224	694.79103	-449.07363	-1290.82566	401.78562	-459.30518	-1353.93637	365.72489	-506.57286	-1171.92037	351.13673	-419.95888	-1139.73870	379.26330	-474.73205	-1173.42881	804.29518	-721.53295	-1143.80458	713.37670	-706.68866	-1275.59386	404.58809	-709.20862	-1349.57894	361.54917	-667.37388	-1169.60407	351.19186	-745.33301	-1125.49502	374.78688	-686.87685	-1182.02371	585.97451	-452.17628	-1211.13841	711.58725	-407.37773	-1249.60230	601.96367	-405.68923	-1218.02528	744.66021	-748.37085	-1250.02336	627.19246	-755.94911	-1128.39130	1075.91572	-409.01014	-1117.97960	966.41622	-428.81992	-1167.28825	932.06918	-397.59278	-1240.16776	1058.69134	-394.18133	-1220.90996	945.65451	-412.28560	-1112.08065	1051.91429	-738.59134	-1097.13772	914.26503	-714.65776	-1215.72460	1036.65729	-772.47528	-1202.00266	906.80886	-742.40465	-1095.84823	1254.10718	-452.02690	-1295.22910	1326.23379	-527.93560	-1101.90715	1264.07317	-705.44588	-1293.99267	1327.93438	-623.27384	-1152.47476	1772.15120	-563.50014	-1085.18525	1725.44570	-397.97174	-1076.67784	1726.83493	-717.54487	-1046.35652	1670.62265	-538.20055	-1048.66887	1672.66279	-583.35791	-1094.14023	1589.59658	-343.01894	-1252.47536	1441.04075	-377.22889	-1234.26949	1448.05732	-314.64579	-1215.30631	1367.41132	-286.14463	-1235.05125	1195.75784	-302.15676	-1268.35230	1213.35609	-268.26406	-1096.76355	1587.85327	-785.46144	-1249.76699	1440.57431	-750.66282	-1228.72308	1449.30805	-828.28996	-1214.44927	1377.22303	-850.86308	-1262.75484	1202.68461	-857.67053	-1292.24575	1229.85300	-892.51606	-1194.35040	1184.26681	-479.06309	-1195.62897	1191.54982	-668.48132	-1185.25582	1195.31567	-489.95529	-1183.08489	1198.30134	-657.34811	
